<?xml version="1.0" standalone="no"?>
<!DOCTYPE svg PUBLIC "-//W3C//DTD SVG 20010904//EN"
 "http://www.w3.org/TR/2001/REC-SVG-20010904/DTD/svg10.dtd">
<svg version="1.0" xmlns="http://www.w3.org/2000/svg"
 width="512.000000pt" height="512.000000pt" viewBox="0 0 512.000000 512.000000"
 preserveAspectRatio="xMidYMid meet">
<metadata>
Created by potrace 1.11, written by Peter Selinger 2001-2013
</metadata>
<g transform="translate(0.000000,512.000000) scale(0.100000,-0.100000)"
fill="#000000" stroke="none">
<path d="M1640 4903 c-98 -17 -288 -87 -310 -113 -3 -4 -25 -20 -50 -37 -135
-93 -249 -257 -301 -430 -32 -106 -34 -302 -5 -413 66 -252 222 -437 461 -546
66 -30 105 -42 205 -59 34 -7 2505 -14 2525 -8 6 2 -41 106 -104 232 l-114
229 -1111 0 c-805 0 -1125 3 -1161 12 -184 42 -297 233 -249 420 53 205 285
313 476 221 70 -33 133 -93 163 -157 l16 -35 236 2 235 2 -6 38 c-30 189 -171
398 -346 514 -62 41 -196 102 -244 111 -12 2 -42 8 -68 12 -50 10 -205 13
-248 5z"/>
<path d="M748 2829 c-20 -3 -43 -4 -52 -3 -9 1 -16 -2 -16 -7 0 -6 -4 -8 -9
-4 -22 13 -206 -63 -288 -119 -171 -117 -303 -316 -340 -516 -14 -78 -8 -279
11 -345 10 -33 18 -64 20 -70 1 -5 14 -36 28 -67 133 -288 415 -470 728 -470
58 -1 117 2 133 6 15 3 38 8 52 11 166 35 361 161 461 300 16 22 31 42 34 45
32 31 116 246 115 295 l0 29 -230 -1 -230 0 -32 -55 c-37 -63 -100 -119 -170
-149 -36 -16 -69 -22 -129 -23 -72 0 -89 4 -146 32 -126 62 -200 178 -199 311
0 148 95 278 238 328 44 15 205 17 1973 18 1059 2 1928 3 1931 4 4 0 -45 103
-108 229 l-115 227 -1813 0 c-996 0 -1828 -3 -1847 -6z"/>
<path d="M3074 1908 c-3 -4 -11 -5 -18 -2 -8 3 -52 -4 -99 -15 -85 -20 -187
-64 -264 -113 -69 -45 -170 -146 -219 -220 -300 -451 -88 -1053 429 -1219 138
-44 316 -46 463 -4 32 10 65 22 72 27 6 6 12 8 12 4 0 -7 78 36 145 80 73 48
162 139 216 222 50 76 105 204 115 269 3 21 8 41 11 46 2 4 -103 7 -235 7
l-239 0 -17 -37 c-31 -68 -107 -137 -187 -170 -64 -26 -188 -24 -252 5 -267
119 -288 472 -37 620 73 43 77 43 1124 43 l1004 0 -26 57 c-26 55 -194 393
-199 401 -5 8 -1795 6 -1799 -1z"/>
</g>
</svg>
